<svg width="548" height="302" viewBox="0 0 548 302" fill="none" xmlns="http://www.w3.org/2000/svg">
<path d="M548 159.483V302H0V193.088H50.3337V218.704H71.873V163.503H92.8953V182.973H105.085V127.556H119.569V83.6287H146.697V106.012H173.042L183.463 116.447H194.046V62.3199H218.372V76.273H239.015V103.194H266.758V69.4088H288.644V83.6287H300.039L309.89 73.7559H321.094V41H352.443V89.6035H384.49V101.317H396.901V83.6287H421.833V103.194H462.349V76.273H489.97V159.483H548Z" fill="url(#paint0_linear)"/>
<path opacity="0.38" d="M340.042 274.531C330.144 274.531 320.987 274.732 313.504 275.071C307.571 272.987 278.852 271.404 244.315 271.404C205.482 271.404 174 273.404 174 275.871C174 278.338 205.481 280.339 244.315 280.339C266.309 280.339 285.941 279.697 298.834 278.693C306.211 279.666 321.891 280.339 340.042 280.339C365.284 280.339 385.746 279.038 385.746 277.436C385.746 275.831 365.283 274.531 340.042 274.531Z" fill="url(#paint1_linear)"/>
<path d="M220.637 267.798C220.637 267.798 219.807 269.801 219.106 270.595C218.405 271.388 215.724 272.807 215.709 275.165C215.693 277.721 220.23 277.012 222.006 276.919C223.78 276.826 223.914 275.46 224.662 274.012C225.41 272.565 226.162 272.81 226.302 271.642C226.442 270.474 225.73 267.86 225.73 267.86L220.637 267.798Z" fill="#DFD1CB"/>
<path d="M262.455 268.257C262.455 268.257 264.927 270.853 267.435 271.395C269.944 271.94 271.699 272.633 271.718 274.123C271.738 275.612 264.497 276.593 261.626 275.092C257.34 272.851 256.905 273.527 256.43 272.406C255.955 271.286 257 268.291 256.969 267.934C256.931 267.496 262.455 268.257 262.455 268.257Z" fill="#DFD1CB"/>
<path d="M255.862 193.312C255.862 193.312 258.458 212.17 259.518 218.544C260.758 225.998 261.177 232.156 261.524 236.014C261.959 240.867 262.794 266.379 263.098 267.798C263.401 269.217 256.306 268.509 256.306 268.509C256.306 268.509 251.158 235.426 249.863 230.258C248.657 225.447 245.34 205.609 244.24 206.924C243.139 208.238 236.23 231.447 235.414 235.242C234.6 239.036 226.74 268.747 226.74 268.747C226.74 268.747 220.866 270.009 219.372 268.819C219.372 268.819 224.497 241.523 225.016 234.408C225.214 231.697 226.82 202.083 231.405 190.086C233.831 183.747 255.862 193.312 255.862 193.312Z" fill="#41457C"/>
<path d="M248.246 148.086C248.246 148.086 255.116 149.506 255.93 150.229C256.815 150.997 258.375 158.521 258.468 160.616C258.561 162.712 257.641 171.467 256.756 174.727C255.871 177.986 256.073 195.004 256.469 197.68C256.469 197.68 242.691 200.375 229.091 198.605C229.091 198.605 231.442 183.827 230.898 179.359C230.2 173.637 228.522 160.45 228.522 160.45C228.522 160.45 230.339 151.571 231.55 150.547C232.761 149.522 241.178 147.856 241.178 147.856L248.246 148.086Z" fill="#C46F4F"/>
<path d="M245.406 126.846C245.406 126.846 253.67 123.788 253.152 134.769C252.636 145.751 250.7 146.866 245.263 145.332C239.827 143.798 239.373 136.868 238.665 133.535C237.957 130.2 242.703 127.325 245.406 126.846Z" fill="#D5A384"/>
<path d="M249.607 149.825C249.607 149.825 245.313 153.307 241.179 147.857C241.179 147.857 241.362 143.437 240.097 139.307C238.831 135.179 248.75 144.813 248.75 144.813C248.645 144.887 248.626 145.3 248.685 145.875C248.735 146.363 248.843 146.968 249.004 147.581C249.363 148.962 249.279 148.716 249.607 149.825Z" fill="#D5A384"/>
<path d="M239.814 138.98C239.814 138.98 239.79 136.046 241.01 135.776C242.229 135.506 242.858 137.203 242.858 137.203L243.84 137.149C243.84 137.149 242.962 134.178 244.125 133.495C245.288 132.813 252.245 133.412 253.119 132.411C253.992 131.409 252.726 125.465 250.828 124.883C248.93 124.299 243.744 123.116 240.452 126.048C240.452 126.048 237.502 126.067 237.51 129.602C237.513 131.939 238.821 137.39 239.814 138.98Z" fill="#263542"/>
<path d="M249.002 147.581C242.597 146.505 241.639 142.862 241.626 142.806C244.116 146.017 248.685 145.875 248.685 145.875C248.734 146.363 248.841 146.968 249.002 147.581Z" fill="#977560"/>
<path d="M242.39 134.532C242.026 133.564 239.964 133.686 240.175 135.22C240.386 136.754 242.089 139.117 242.774 138.675C243.458 138.231 242.893 135.866 242.39 134.532Z" fill="#D5A384"/>
<path d="M238.949 148.328C238.949 148.328 242.824 156.158 248.527 155.525C254.231 154.891 250.924 149.428 250.38 148.555C250.378 148.555 246.956 146.359 238.949 148.328Z" fill="#D5A384"/>
<path d="M268.012 171.892C271.21 173.373 283.451 176.417 283.451 176.417L284.293 171.367C284.293 171.367 278.097 168.951 273.833 167.855C271.755 167.321 269.705 166.575 269.375 166.404C269.043 166.233 262.233 157.966 261.72 157.056C261.207 156.145 259.98 153.173 258.176 151.536C256.374 149.898 254.107 149.506 254.107 149.506C249.596 153.319 255.695 160.534 255.695 160.534C255.695 160.534 263.53 169.817 268.012 171.892Z" fill="#C46F4F"/>
<path d="M317.062 165.259H219.088C216.556 165.259 214.503 167.312 214.503 169.845V239.893C214.503 242.426 216.556 244.479 219.088 244.479H317.062C319.595 244.479 321.648 242.426 321.648 239.893V169.846C321.648 167.314 319.595 165.259 317.062 165.259Z" fill="#504E58"/>
<path d="M314.166 242.175H313.989V242.101H314.166C314.206 242.101 314.244 242.101 314.282 242.1L314.284 242.174C314.245 242.175 314.206 242.175 314.166 242.175ZM313.695 242.175H313.4V242.101H313.695V242.175ZM313.105 242.175H312.81V242.101H313.105V242.175ZM312.515 242.175H312.22V242.101H312.515V242.175ZM311.925 242.175H311.63V242.101H311.925V242.175ZM311.335 242.175H311.04V242.101H311.335V242.175ZM310.745 242.175H310.45V242.101H310.745V242.175ZM310.156 242.175H309.861V242.101H310.156V242.175ZM309.566 242.175H309.271V242.101H309.566V242.175ZM308.976 242.175H308.681V242.101H308.976V242.175ZM308.386 242.175H308.091V242.101H308.386V242.175ZM307.797 242.175H307.502V242.101H307.797V242.175ZM307.207 242.175H306.912V242.101H307.207V242.175ZM306.617 242.175H306.322V242.101H306.617V242.175ZM306.027 242.175H305.732V242.101H306.027V242.175ZM305.437 242.175H305.142V242.101H305.437V242.175ZM304.847 242.175H304.552V242.101H304.847V242.175ZM304.257 242.175H303.962V242.101H304.257V242.175ZM303.667 242.175H303.372V242.101H303.667V242.175ZM303.078 242.175H302.783V242.101H303.078V242.175ZM302.488 242.175H302.193V242.101H302.488V242.175ZM301.898 242.175H301.603V242.101H301.898V242.175ZM301.309 242.175H301.014V242.101H301.309V242.175ZM300.719 242.175H300.424V242.101H300.719V242.175ZM300.129 242.175H299.834V242.101H300.129V242.175ZM299.539 242.175H299.244V242.101H299.539V242.175ZM298.949 242.175H298.654V242.101H298.949V242.175ZM298.359 242.175H298.064V242.101H298.359V242.175ZM297.769 242.175H297.474V242.101H297.769V242.175ZM297.179 242.175H296.884V242.101H297.179V242.175ZM296.589 242.175H296.294V242.101H296.589V242.175ZM296 242.175H295.705V242.101H296V242.175ZM295.41 242.175H295.115V242.101H295.41V242.175ZM294.821 242.175H294.526V242.101H294.821V242.175ZM294.231 242.175H293.936V242.101H294.231V242.175ZM293.641 242.175H293.346V242.101H293.641V242.175ZM293.051 242.175H292.756V242.101H293.051V242.175ZM292.461 242.175H292.166V242.101H292.461V242.175ZM291.871 242.175H291.576V242.101H291.871V242.175ZM291.281 242.175H290.986V242.101H291.281V242.175ZM290.691 242.175H290.396V242.101H290.691V242.175ZM290.101 242.175H289.806V242.101H290.101V242.175ZM289.511 242.175H289.216V242.101H289.511V242.175ZM288.922 242.175H288.627V242.101H288.922V242.175ZM288.332 242.175H288.037V242.101H288.332V242.175ZM287.743 242.175H287.448V242.101H287.743V242.175ZM287.153 242.175H286.858V242.101H287.153V242.175ZM286.563 242.175H286.268V242.101H286.563V242.175ZM285.973 242.175H285.678V242.101H285.973V242.175ZM285.383 242.175H285.088V242.101H285.383V242.175ZM284.793 242.175H284.498V242.101H284.793V242.175ZM284.203 242.175H283.908V242.101H284.203V242.175ZM283.613 242.175H283.318V242.101H283.613V242.175ZM283.023 242.175H282.728V242.101H283.023V242.175ZM282.433 242.175H282.138V242.101H282.433V242.175ZM281.845 242.175H281.55V242.101H281.845V242.175ZM281.255 242.175H280.96V242.101H281.255V242.175ZM280.665 242.175H280.37V242.101H280.665V242.175ZM280.075 242.175H279.78V242.101H280.075V242.175ZM279.485 242.175H279.19V242.101H279.485V242.175ZM278.895 242.175H278.6V242.101H278.895V242.175ZM278.305 242.175H278.01V242.101H278.305V242.175ZM277.715 242.175H277.42V242.101H277.715V242.175ZM277.125 242.175H276.83V242.101H277.125V242.175ZM276.535 242.175H276.24V242.101H276.535V242.175ZM275.945 242.175H275.65V242.101H275.945V242.175ZM275.357 242.175H275.062V242.101H275.357V242.175ZM274.767 242.175H274.472V242.101H274.767V242.175ZM274.177 242.175H273.882V242.101H274.177V242.175ZM273.587 242.175H273.292V242.101H273.587V242.175ZM272.997 242.175H272.702V242.101H272.997V242.175ZM272.407 242.175H272.112V242.101H272.407V242.175ZM271.817 242.175H271.522V242.101H271.817V242.175ZM271.227 242.175H270.932V242.101H271.227V242.175ZM270.637 242.175H270.342V242.101H270.637V242.175ZM270.047 242.175H269.752V242.101H270.047V242.175ZM269.457 242.175H269.162V242.101H269.457V242.175ZM268.867 242.175H268.572V242.101H268.867V242.175ZM268.279 242.175H267.984V242.101H268.279V242.175ZM267.689 242.175H267.394V242.101H267.689V242.175ZM267.099 242.175H266.804V242.101H267.099V242.175ZM266.509 242.175H266.214V242.101H266.509V242.175ZM265.919 242.175H265.624V242.101H265.919V242.175ZM265.329 242.175H265.034V242.101H265.329V242.175ZM264.739 242.175H264.444V242.101H264.739V242.175ZM264.149 242.175H263.854V242.101H264.149V242.175ZM263.559 242.175H263.264V242.101H263.559V242.175ZM262.969 242.175H262.674V242.101H262.969V242.175ZM262.379 242.175H262.084V242.101H262.379V242.175ZM261.791 242.175H261.496V242.101H261.791V242.175ZM261.201 242.175H260.906V242.101H261.201V242.175ZM260.611 242.175H260.316V242.101H260.611V242.175ZM260.021 242.175H259.726V242.101H260.021V242.175ZM259.431 242.175H259.136V242.101H259.431V242.175ZM258.841 242.175H258.546V242.101H258.841V242.175ZM258.251 242.175H257.956V242.101H258.251V242.175ZM257.661 242.175H257.366V242.101H257.661V242.175ZM257.071 242.175H256.776V242.101H257.071V242.175ZM256.481 242.175H256.186V242.101H256.481V242.175ZM255.891 242.175H255.596V242.101H255.891V242.175ZM255.301 242.175H255.006V242.101H255.301V242.175ZM254.713 242.175H254.418V242.101H254.713V242.175ZM254.123 242.175H253.828V242.101H254.123V242.175ZM253.533 242.175H253.238V242.101H253.533V242.175ZM252.943 242.175H252.648V242.101H252.943V242.175ZM252.353 242.175H252.058V242.101H252.353V242.175ZM251.763 242.175H251.468V242.101H251.763V242.175ZM251.173 242.175H250.878V242.101H251.173V242.175ZM250.583 242.175H250.288V242.101H250.583V242.175ZM249.993 242.175H249.698V242.101H249.993V242.175ZM249.403 242.175H249.108V242.101H249.403V242.175ZM248.813 242.175H248.518V242.101H248.813V242.175ZM248.225 242.175H247.93V242.101H248.225V242.175ZM247.635 242.175H247.34V242.101H247.635V242.175ZM247.045 242.175H246.75V242.101H247.045V242.175ZM246.455 242.175H246.16V242.101H246.455V242.175ZM245.865 242.175H245.57V242.101H245.865V242.175ZM245.275 242.175H244.98V242.101H245.275V242.175ZM244.685 242.175H244.39V242.101H244.685V242.175ZM244.095 242.175H243.8V242.101H244.095V242.175ZM243.505 242.175H243.21V242.101H243.505V242.175ZM242.915 242.175H242.62V242.101H242.915V242.175ZM242.325 242.175H242.03V242.101H242.325V242.175ZM241.735 242.175H241.44V242.101H241.735V242.175ZM241.147 242.175H240.852V242.101H241.147V242.175ZM240.557 242.175H240.262V242.101H240.557V242.175ZM239.967 242.175H239.672V242.101H239.967V242.175ZM239.377 242.175H239.082V242.101H239.377V242.175ZM238.787 242.175H238.492V242.101H238.787V242.175ZM238.197 242.175H237.902V242.101H238.197V242.175ZM237.607 242.175H237.312V242.101H237.607V242.175ZM237.017 242.175H236.722V242.101H237.017V242.175ZM236.427 242.175H236.132V242.101H236.427V242.175ZM235.837 242.175H235.542V242.101H235.837V242.175ZM235.247 242.175H234.952V242.101H235.247V242.175ZM234.659 242.175H234.364V242.101H234.659V242.175ZM234.069 242.175H233.774V242.101H234.069V242.175ZM233.479 242.175H233.184V242.101H233.479V242.175ZM232.889 242.175H232.594V242.101H232.889V242.175ZM232.299 242.175H232.004V242.101H232.299V242.175ZM231.709 242.175H231.414V242.101H231.709V242.175ZM231.119 242.175H230.824V242.101H231.119V242.175ZM230.529 242.175H230.234V242.101H230.529V242.175ZM229.939 242.175H229.644V242.101H229.939V242.175ZM229.349 242.175H229.054V242.101H229.349V242.175ZM228.759 242.175H228.464V242.101H228.759V242.175ZM228.169 242.175H227.874V242.101H228.169V242.175ZM227.581 242.175H227.286V242.101H227.581V242.175ZM226.991 242.175H226.696V242.101H226.991V242.175ZM226.401 242.175H226.106V242.101H226.401V242.175ZM225.811 242.175H225.516V242.101H225.811V242.175ZM225.221 242.175H224.926V242.101H225.221V242.175ZM224.631 242.175H224.336V242.101H224.631V242.175ZM224.041 242.175H223.746V242.101H224.041V242.175ZM223.451 242.175H223.156V242.101H223.451V242.175ZM222.861 242.175H222.566V242.101H222.861V242.175ZM222.271 242.175H221.985L221.976 242.101H222.271V242.175ZM221.68 242.165C221.582 242.159 221.482 242.147 221.385 242.134L221.395 242.06C221.492 242.073 221.59 242.084 221.686 242.091L221.68 242.165ZM314.582 242.156L314.574 242.082C314.67 242.073 314.767 242.06 314.863 242.045L314.875 242.117C314.779 242.134 314.679 242.145 314.582 242.156ZM221.091 242.084C220.995 242.063 220.898 242.039 220.802 242.013L220.823 241.942C220.917 241.968 221.012 241.992 221.106 242.011L221.091 242.084ZM315.169 242.058L315.151 241.986C315.244 241.964 315.34 241.939 315.433 241.91L315.455 241.98C315.36 242.01 315.263 242.036 315.169 242.058ZM220.519 241.921C220.426 241.889 220.335 241.852 220.243 241.812L220.273 241.744C220.363 241.783 220.453 241.82 220.544 241.852L220.519 241.921ZM315.736 241.883L315.71 241.814C315.8 241.78 315.89 241.74 315.978 241.699L316.009 241.765C315.919 241.809 315.828 241.848 315.736 241.883ZM219.975 241.684C219.888 241.638 219.801 241.589 219.717 241.538L219.755 241.474C219.838 241.525 219.923 241.573 220.009 241.617L219.975 241.684ZM316.275 241.631L316.239 241.566C316.325 241.519 316.409 241.467 316.49 241.415L316.53 241.477C316.447 241.53 316.362 241.582 316.275 241.631ZM219.469 241.374C219.389 241.318 219.31 241.258 219.233 241.194L219.28 241.137C219.355 241.199 219.434 241.258 219.513 241.314L219.469 241.374ZM316.775 241.308L316.731 241.249C316.807 241.191 316.884 241.129 316.959 241.066L317.008 241.122C316.931 241.185 316.853 241.249 316.775 241.308ZM219.009 240.998C218.936 240.93 218.866 240.859 218.799 240.787L218.854 240.737C218.92 240.808 218.99 240.877 219.06 240.943L219.009 240.998ZM317.225 240.92L317.173 240.867C317.242 240.799 317.309 240.728 317.374 240.654L317.43 240.703C317.363 240.778 317.294 240.851 317.225 240.92ZM218.605 240.563C218.543 240.486 218.482 240.407 218.425 240.325L218.485 240.283C218.541 240.362 218.6 240.441 218.662 240.516L218.605 240.563ZM317.618 240.474L317.559 240.43C317.618 240.353 317.676 240.274 317.729 240.193L317.791 240.234C317.735 240.315 317.677 240.396 317.618 240.474ZM218.262 240.076C218.211 239.992 218.162 239.904 218.116 239.817L218.181 239.783C218.226 239.868 218.274 239.955 218.324 240.038L218.262 240.076ZM317.947 239.98L317.884 239.943C317.933 239.859 317.978 239.772 318.02 239.685L318.086 239.718C318.043 239.805 317.996 239.893 317.947 239.98ZM217.99 239.548C217.95 239.457 217.914 239.364 217.88 239.271L217.95 239.246C217.982 239.337 218.018 239.429 218.056 239.519L217.99 239.548ZM318.205 239.445L318.138 239.417C318.174 239.327 318.207 239.234 318.236 239.143L318.307 239.165C318.276 239.259 318.242 239.354 318.205 239.445ZM217.792 238.988C217.765 238.893 217.742 238.796 217.723 238.699L217.795 238.684C217.814 238.78 217.838 238.874 217.863 238.969L217.792 238.988ZM318.388 238.88L318.318 238.862C318.341 238.769 318.362 238.674 318.378 238.576L318.45 238.59C318.433 238.688 318.412 238.786 318.388 238.88ZM217.672 238.405C217.659 238.308 217.65 238.208 217.643 238.11L217.717 238.106C217.723 238.203 217.733 238.3 217.745 238.396L217.672 238.405ZM318.493 238.295L318.419 238.287C318.43 238.191 318.437 238.094 318.441 237.997L318.515 238C318.511 238.098 318.503 238.197 318.493 238.295ZM217.708 237.812H217.634V237.517H217.708V237.812ZM318.518 237.703H318.444V237.408H318.518V237.703ZM217.708 237.222H217.634V236.927H217.708V237.222ZM318.518 237.113H318.444V236.818H318.518V237.113ZM217.708 236.632H217.634V236.337H217.708V236.632ZM318.518 236.523H318.444V236.228H318.518V236.523ZM217.708 236.042H217.634V235.747H217.708V236.042ZM318.518 235.933H318.444V235.638H318.518V235.933ZM217.708 235.454H217.634V235.159H217.708V235.454ZM318.518 235.343H318.444V235.048H318.518V235.343ZM217.708 234.864H217.634V234.569H217.708V234.864ZM318.518 234.753H318.444V234.458H318.518V234.753ZM217.708 234.274H217.634V233.979H217.708V234.274ZM318.518 234.163H318.444V233.868H318.518V234.163ZM217.708 233.684H217.634V233.389H217.708V233.684ZM318.518 233.573H318.444V233.278H318.518V233.573ZM217.708 233.094H217.634V232.799H217.708V233.094ZM318.518 232.983H318.444V232.688H318.518V232.983ZM217.708 232.504H217.634V232.209H217.708V232.504ZM318.518 232.394H318.444V232.099H318.518V232.394ZM217.708 231.914H217.634V231.619H217.708V231.914ZM318.518 231.804H318.444V231.509H318.518V231.804ZM217.708 231.324H217.634V231.029H217.708V231.324ZM318.518 231.214H318.444V230.919H318.518V231.214ZM217.708 230.734H217.634V230.439H217.708V230.734ZM318.518 230.625H318.444V230.33H318.518V230.625ZM217.708 230.144H217.634V229.849H217.708V230.144ZM318.518 230.035H318.444V229.74H318.518V230.035ZM217.708 229.554H217.634V229.259H217.708V229.554ZM318.518 229.445H318.444V229.15H318.518V229.445ZM217.708 228.964H217.634V228.669H217.708V228.964ZM318.518 228.855H318.444V228.56H318.518V228.855ZM217.708 228.374H217.634V228.079H217.708V228.374ZM318.518 228.265H318.444V227.97H318.518V228.265ZM217.708 227.786H217.634V227.491H217.708V227.786ZM318.518 227.675H318.444V227.38H318.518V227.675ZM217.708 227.196H217.634V226.901H217.708V227.196ZM318.518 227.085H318.444V226.79H318.518V227.085ZM217.708 226.606H217.634V226.311H217.708V226.606ZM318.518 226.495H318.444V226.2H318.518V226.495ZM217.708 226.016H217.634V225.721H217.708V226.016ZM318.518 225.905H318.444V225.61H318.518V225.905ZM217.708 225.426H217.634V225.131H217.708V225.426ZM318.518 225.316H318.444V225.021H318.518V225.316ZM217.708 224.836H217.634V224.541H217.708V224.836ZM318.518 224.726H318.444V224.431H318.518V224.726ZM217.708 224.246H217.634V223.951H217.708V224.246ZM318.518 224.137H318.444V223.842H318.518V224.137ZM217.708 223.656H217.634V223.361H217.708V223.656ZM318.518 223.547H318.444V223.252H318.518V223.547ZM217.708 223.066H217.634V222.771H217.708V223.066ZM318.518 222.957H318.444V222.662H318.518V222.957ZM217.708 222.476H217.634V222.181H217.708V222.476ZM318.518 222.367H318.444V222.072H318.518V222.367ZM217.708 221.886H217.634V221.591H217.708V221.886ZM318.518 221.777H318.444V221.482H318.518V221.777ZM217.708 221.298H217.634V221.003H217.708V221.298ZM318.518 221.187H318.444V220.892H318.518V221.187ZM217.708 220.708H217.634V220.413H217.708V220.708ZM318.518 220.597H318.444V220.302H318.518V220.597ZM217.708 220.118H217.634V219.823H217.708V220.118ZM318.518 220.007H318.444V219.712H318.518V220.007ZM217.708 219.528H217.634V219.233H217.708V219.528ZM318.518 219.417H318.444V219.122H318.518V219.417ZM217.708 218.938H217.634V218.643H217.708V218.938ZM318.518 218.827H318.444V218.532H318.518V218.827ZM217.708 218.348H217.634V218.053H217.708V218.348ZM318.518 218.238H318.444V217.943H318.518V218.238ZM217.708 217.758H217.634V217.463H217.708V217.758ZM318.518 217.648H318.444V217.353H318.518V217.648ZM217.708 217.168H217.634V216.873H217.708V217.168ZM318.518 217.059H318.444V216.764H318.518V217.059ZM217.708 216.578H217.634V216.283H217.708V216.578ZM318.518 216.469H318.444V216.174H318.518V216.469ZM217.708 215.988H217.634V215.693H217.708V215.988ZM318.518 215.879H318.444V215.584H318.518V215.879ZM217.708 215.398H217.634V215.103H217.708V215.398ZM318.518 215.289H318.444V214.994H318.518V215.289ZM217.708 214.81H217.634V214.515H217.708V214.81ZM318.518 214.699H318.444V214.404H318.518V214.699ZM217.708 214.22H217.634V213.925H217.708V214.22ZM318.518 214.109H318.444V213.814H318.518V214.109ZM217.708 213.63H217.634V213.335H217.708V213.63ZM318.518 213.519H318.444V213.224H318.518V213.519ZM217.708 213.04H217.634V212.745H217.708V213.04ZM318.518 212.929H318.444V212.634H318.518V212.929ZM217.708 212.45H217.634V212.155H217.708V212.45ZM318.518 212.339H318.444V212.044H318.518V212.339ZM217.708 211.86H217.634V211.565H217.708V211.86ZM318.518 211.749H318.444V211.454H318.518V211.749ZM217.708 211.27H217.634V210.975H217.708V211.27ZM318.518 211.16H318.444V210.865H318.518V211.16ZM217.708 210.68H217.634V210.385H217.708V210.68ZM318.518 210.571H318.444V210.276H318.518V210.571ZM217.708 210.09H217.634V209.795H217.708V210.09ZM318.518 209.981H318.444V209.686H318.518V209.981ZM217.708 209.5H217.634V209.205H217.708V209.5ZM318.518 209.391H318.444V209.096H318.518V209.391ZM217.708 208.91H217.634V208.615H217.708V208.91ZM318.518 208.801H318.444V208.506H318.518V208.801ZM217.708 208.322H217.634V208.027H217.708V208.322ZM318.518 208.211H318.444V207.916H318.518V208.211ZM217.708 207.732H217.634V207.437H217.708V207.732ZM318.518 207.621H318.444V207.326H318.518V207.621ZM217.708 207.142H217.634V206.847H217.708V207.142ZM318.518 207.031H318.444V206.736H318.518V207.031ZM217.708 206.552H217.634V206.257H217.708V206.552ZM318.518 206.441H318.444V206.146H318.518V206.441ZM217.708 205.962H217.634V205.667H217.708V205.962ZM318.518 205.851H318.444V205.556H318.518V205.851ZM217.708 205.372H217.634V205.077H217.708V205.372ZM318.518 205.261H318.444V204.966H318.518V205.261ZM217.708 204.782H217.634V204.487H217.708V204.782ZM318.518 204.671H318.444V204.376H318.518V204.671ZM217.708 204.192H217.634V203.897H217.708V204.192ZM318.518 204.082H318.444V203.787H318.518V204.082ZM217.708 203.602H217.634V203.307H217.708V203.602ZM318.518 203.493H318.444V203.198H318.518V203.493ZM217.708 203.012H217.634V202.717H217.708V203.012ZM318.518 202.903H318.444V202.608H318.518V202.903ZM217.708 202.422H217.634V202.127H217.708V202.422ZM318.518 202.313H318.444V202.018H318.518V202.313ZM217.708 201.832H217.634V201.537H217.708V201.832ZM318.518 201.723H318.444V201.428H318.518V201.723ZM217.708 201.244H217.634V200.949H217.708V201.244ZM318.518 201.133H318.444V200.838H318.518V201.133ZM217.708 200.654H217.634V200.359H217.708V200.654ZM318.518 200.543H318.444V200.248H318.518V200.543ZM217.708 200.064H217.634V199.769H217.708V200.064ZM318.518 199.953H318.444V199.658H318.518V199.953ZM217.708 199.474H217.634V199.179H217.708V199.474ZM318.518 199.363H318.444V199.068H318.518V199.363ZM217.708 198.884H217.634V198.589H217.708V198.884ZM318.518 198.773H318.444V198.478H318.518V198.773ZM217.708 198.294H217.634V197.999H217.708V198.294ZM318.518 198.183H318.444V197.888H318.518V198.183ZM217.708 197.704H217.634V197.409H217.708V197.704ZM318.518 197.593H318.444V197.298H318.518V197.593ZM217.708 197.114H217.634V196.819H217.708V197.114ZM318.518 197.005H318.444V196.71H318.518V197.005ZM217.708 196.524H217.634V196.229H217.708V196.524ZM318.518 196.415H318.444V196.12H318.518V196.415ZM217.708 195.934H217.634V195.639H217.708V195.934ZM318.518 195.825H318.444V195.53H318.518V195.825ZM217.708 195.344H217.634V195.049H217.708V195.344ZM318.518 195.235H318.444V194.94H318.518V195.235ZM217.708 194.756H217.634V194.461H217.708V194.756ZM318.518 194.645H318.444V194.35H318.518V194.645ZM217.708 194.166H217.634V193.871H217.708V194.166ZM318.518 194.055H318.444V193.76H318.518V194.055ZM217.708 193.576H217.634V193.281H217.708V193.576ZM318.518 193.465H318.444V193.17H318.518V193.465ZM217.708 192.986H217.634V192.691H217.708V192.986ZM318.518 192.875H318.444V192.58H318.518V192.875ZM217.708 192.396H217.634V192.101H217.708V192.396ZM318.518 192.285H318.444V191.99H318.518V192.285ZM217.708 191.806H217.634V191.511H217.708V191.806ZM318.518 191.695H318.444V191.4H318.518V191.695ZM217.708 191.216H217.634V190.921H217.708V191.216ZM318.518 191.105H318.444V190.81H318.518V191.105ZM217.708 190.626H217.634V190.331H217.708V190.626ZM318.518 190.517H318.444V190.222H318.518V190.517ZM217.708 190.036H217.634V189.741H217.708V190.036ZM318.518 189.927H318.444V189.632H318.518V189.927ZM217.708 189.446H217.634V189.151H217.708V189.446ZM318.518 189.337H318.444V189.042H318.518V189.337ZM217.708 188.856H217.634V188.561H217.708V188.856ZM318.518 188.747H318.444V188.452H318.518V188.747ZM217.708 188.268H217.634V187.973H217.708V188.268ZM318.518 188.157H318.444V187.862H318.518V188.157ZM217.708 187.678H217.634V187.383H217.708V187.678ZM318.518 187.567H318.444V187.272H318.518V187.567ZM217.708 187.088H217.634V186.793H217.708V187.088ZM318.518 186.977H318.444V186.682H318.518V186.977ZM217.708 186.498H217.634V186.203H217.708V186.498ZM318.518 186.387H318.444V186.092H318.518V186.387ZM217.708 185.908H217.634V185.613H217.708V185.908ZM318.518 185.797H318.444V185.502H318.518V185.797ZM217.708 185.318H217.634V185.023H217.708V185.318ZM318.518 185.207H318.444V184.912H318.518V185.207ZM217.708 184.728H217.634V184.433H217.708V184.728ZM318.518 184.617H318.444V184.322H318.518V184.617ZM217.708 184.138H217.634V183.843H217.708V184.138ZM318.518 184.029H318.444V183.734H318.518V184.029ZM217.708 183.548H217.634V183.253H217.708V183.548ZM318.518 183.439H318.444V183.144H318.518V183.439ZM217.708 182.958H217.634V182.663H217.708V182.958ZM318.518 182.849H318.444V182.554H318.518V182.849ZM217.708 182.368H217.634V182.073H217.708V182.368ZM318.518 182.259H318.444V181.964H318.518V182.259ZM217.708 181.778H217.634V181.483H217.708V181.778ZM318.518 181.669H318.444V181.374H318.518V181.669ZM217.708 181.19H217.634V180.895H217.708V181.19ZM318.518 181.079H318.444V180.784H318.518V181.079ZM217.708 180.6H217.634V180.305H217.708V180.6ZM318.518 180.489H318.444V180.194H318.518V180.489ZM217.708 180.01H217.634V179.715H217.708V180.01ZM318.518 179.899H318.444V179.604H318.518V179.899ZM217.708 179.42H217.634V179.125H217.708V179.42ZM318.518 179.309H318.444V179.014H318.518V179.309ZM217.708 178.83H217.634V178.535H217.708V178.83ZM318.518 178.719H318.444V178.424H318.518V178.719ZM217.708 178.24H217.634V177.945H217.708V178.24ZM318.518 178.129H318.444V177.834H318.518V178.129ZM217.708 177.65H217.634V177.355H217.708V177.65ZM318.518 177.539H318.444V177.244H318.518V177.539ZM217.708 177.06H217.634V176.765H217.708V177.06ZM318.518 176.949H318.444V176.654H318.518V176.949ZM217.708 176.47H217.634V176.175H217.708V176.47ZM318.518 176.361H318.444V176.066H318.518V176.361ZM217.708 175.88H217.634V175.585H217.708V175.88ZM318.518 175.771H318.444V175.476H318.518V175.771ZM217.708 175.29H217.634V174.995H217.708V175.29ZM318.518 175.181H318.444V174.886H318.518V175.181ZM217.708 174.7H217.634V174.405H217.708V174.7ZM318.518 174.591H318.444V174.296H318.518V174.591ZM217.708 174.112H217.634V173.817H217.708V174.112ZM318.518 174.001H318.444V173.706H318.518V174.001ZM217.708 173.522H217.634V173.227H217.708V173.522ZM318.518 173.411H318.444V173.116H318.518V173.411ZM217.708 172.932H217.634V172.637H217.708V172.932ZM318.518 172.821H318.444V172.526H318.518V172.821ZM217.708 172.342H217.634V172.047H217.708V172.342ZM318.518 172.231H318.444V171.936H318.518V172.231ZM217.711 171.753L217.637 171.75C217.64 171.652 217.647 171.553 217.658 171.454L217.731 171.461C217.721 171.559 217.714 171.656 217.711 171.753ZM318.436 171.644C318.43 171.547 318.421 171.45 318.408 171.354L318.481 171.345C318.495 171.442 318.503 171.542 318.509 171.64L318.436 171.644ZM217.773 171.172L217.701 171.159C217.718 171.062 217.739 170.963 217.762 170.868L217.835 170.886C217.81 170.981 217.789 171.076 217.773 171.172ZM318.359 171.065C318.34 170.97 318.318 170.874 318.291 170.78L318.362 170.761C318.388 170.857 318.41 170.953 318.431 171.05L318.359 171.065ZM217.913 170.606L217.842 170.584C217.872 170.489 217.906 170.396 217.942 170.304L218.01 170.332C217.975 170.422 217.942 170.513 217.913 170.606ZM318.204 170.503C318.172 170.41 318.136 170.318 318.098 170.23L318.166 170.2C318.204 170.29 318.241 170.385 318.273 170.478L318.204 170.503ZM218.13 170.063L218.063 170.031C218.106 169.942 218.152 169.854 218.202 169.768L218.265 169.805C218.217 169.889 218.171 169.976 218.13 170.063ZM317.974 169.964C317.93 169.877 317.881 169.792 317.831 169.709L317.894 169.671C317.944 169.755 317.995 169.842 318.039 169.93L317.974 169.964ZM218.417 169.556L218.355 169.515C218.41 169.433 218.467 169.352 218.528 169.273L218.587 169.317C218.528 169.397 218.47 169.476 218.417 169.556ZM317.672 169.464C317.616 169.385 317.557 169.307 317.496 169.231L317.554 169.186C317.616 169.262 317.676 169.342 317.732 169.423L317.672 169.464ZM218.773 169.093L218.717 169.044C218.782 168.97 218.851 168.897 218.92 168.827L218.972 168.88C218.904 168.948 218.838 169.019 218.773 169.093ZM317.304 169.01C317.238 168.938 317.169 168.868 317.098 168.802L317.148 168.748C317.22 168.815 317.29 168.886 317.357 168.958L317.304 169.01ZM219.187 168.681L219.139 168.625C219.212 168.56 219.29 168.498 219.37 168.438L219.414 168.497C219.338 168.556 219.261 168.618 219.187 168.681ZM316.88 168.609C316.804 168.547 316.726 168.488 316.648 168.43L316.691 168.37C316.772 168.428 316.85 168.488 316.927 168.55L316.88 168.609ZM219.655 168.329L219.615 168.267C219.698 168.214 219.783 168.162 219.87 168.113L219.905 168.178C219.82 168.225 219.734 168.277 219.655 168.329ZM316.403 168.27C316.321 168.22 316.236 168.171 316.149 168.125L316.183 168.06C316.272 168.106 316.359 168.156 316.441 168.208L316.403 168.27ZM220.165 168.044L220.134 167.978C220.224 167.935 220.316 167.897 220.407 167.86L220.433 167.929C220.344 167.964 220.254 168.003 220.165 168.044ZM315.887 167.998C315.798 167.96 315.707 167.923 315.616 167.891L315.641 167.821C315.734 167.855 315.826 167.892 315.916 167.932L315.887 167.998ZM220.711 167.832L220.689 167.761C220.783 167.731 220.879 167.705 220.975 167.683L220.992 167.755C220.898 167.777 220.802 167.804 220.711 167.832ZM315.338 167.801C315.245 167.774 315.149 167.751 315.055 167.73L315.07 167.658C315.166 167.678 315.263 167.702 315.359 167.728L315.338 167.801ZM221.279 167.697L221.267 167.625C221.364 167.609 221.463 167.596 221.562 167.587L221.569 167.661C221.47 167.668 221.373 167.681 221.279 167.697ZM314.766 167.681C314.67 167.668 314.573 167.658 314.475 167.65L314.481 167.576C314.58 167.584 314.679 167.594 314.776 167.607L314.766 167.681ZM221.86 167.641L221.857 167.568C221.9 167.566 221.942 167.566 221.985 167.566H222.153V167.64H221.985C221.944 167.638 221.901 167.64 221.86 167.641ZM314.183 167.638H313.871V167.565H314.183V167.638ZM313.576 167.638H313.281V167.565H313.576V167.638ZM312.987 167.638H312.692V167.565H312.987V167.638ZM312.397 167.638H312.102V167.565H312.397V167.638ZM311.807 167.638H311.512V167.565H311.807V167.638ZM311.217 167.638H310.922V167.565H311.217V167.638ZM310.627 167.638H310.333V167.565H310.627V167.638ZM310.038 167.638H309.743V167.565H310.038V167.638ZM309.448 167.638H309.153V167.565H309.448V167.638ZM308.858 167.638H308.563V167.565H308.858V167.638ZM308.268 167.638H307.973V167.565H308.268V167.638ZM307.678 167.638H307.383V167.565H307.678V167.638ZM307.088 167.638H306.793V167.565H307.088V167.638ZM306.498 167.638H306.203V167.565H306.498V167.638ZM305.909 167.638H305.614V167.565H305.909V167.638ZM305.319 167.638H305.024V167.565H305.319V167.638ZM304.729 167.638H304.434V167.565H304.729V167.638ZM304.139 167.638H303.844V167.565H304.139V167.638ZM303.549 167.638H303.254V167.565H303.549V167.638ZM302.96 167.638H302.665V167.565H302.96V167.638ZM302.37 167.638H302.075V167.565H302.37V167.638ZM301.78 167.638H301.485V167.565H301.78V167.638ZM301.19 167.638H300.895V167.565H301.19V167.638ZM300.6 167.638H300.305V167.565H300.6V167.638ZM300.01 167.638H299.715V167.565H300.01V167.638ZM299.421 167.638H299.126V167.565H299.421V167.638ZM298.831 167.638H298.536V167.565H298.831V167.638ZM298.241 167.638H297.946V167.565H298.241V167.638ZM297.651 167.638H297.356V167.565H297.651V167.638ZM297.061 167.638H296.766V167.565H297.061V167.638ZM296.471 167.638H296.176V167.565H296.471V167.638ZM295.882 167.638H295.587V167.565H295.882V167.638ZM295.292 167.638H294.997V167.565H295.292V167.638ZM294.702 167.638H294.407V167.565H294.702V167.638ZM294.112 167.638H293.817V167.565H294.112V167.638ZM293.522 167.638H293.227V167.565H293.522V167.638ZM292.932 167.638H292.637V167.565H292.932V167.638ZM292.343 167.638H292.048V167.565H292.343V167.638ZM291.753 167.638H291.458V167.565H291.753V167.638ZM291.163 167.638H290.868V167.565H291.163V167.638ZM290.573 167.638H290.278V167.565H290.573V167.638ZM289.983 167.638H289.688V167.565H289.983V167.638ZM289.393 167.638H289.098V167.565H289.393V167.638ZM288.804 167.638H288.509V167.565H288.804V167.638ZM288.214 167.638H287.919V167.565H288.214V167.638ZM287.624 167.638H287.329V167.565H287.624V167.638ZM287.034 167.638H286.739V167.565H287.034V167.638ZM286.444 167.638H286.149V167.565H286.444V167.638ZM285.855 167.638H285.56V167.565H285.855V167.638ZM285.265 167.638H284.97V167.565H285.265V167.638ZM284.675 167.638H284.38V167.565H284.675V167.638ZM284.085 167.638H283.79V167.565H284.085V167.638ZM283.495 167.638H283.2V167.565H283.495V167.638ZM282.905 167.638H282.61V167.565H282.905V167.638ZM282.315 167.638H282.021V167.565H282.315V167.638ZM281.726 167.638H281.431V167.565H281.726V167.638ZM281.136 167.638H280.841V167.565H281.136V167.638ZM280.546 167.638H280.251V167.565H280.546V167.638ZM279.956 167.638H279.661V167.565H279.956V167.638ZM279.366 167.638H279.071V167.565H279.366V167.638ZM278.777 167.638H278.482V167.565H278.777V167.638ZM278.187 167.638H277.892V167.565H278.187V167.638ZM277.597 167.638H277.302V167.565H277.597V167.638ZM277.007 167.638H276.712V167.565H277.007V167.638ZM276.417 167.638H276.122V167.565H276.417V167.638ZM275.827 167.638H275.532V167.565H275.827V167.638ZM275.237 167.638H274.943V167.565H275.237V167.638ZM274.648 167.638H274.353V167.565H274.648V167.638ZM274.058 167.638H273.763V167.565H274.058V167.638ZM273.468 167.638H273.173V167.565H273.468V167.638ZM272.878 167.638H272.583V167.565H272.878V167.638ZM272.289 167.638H271.994V167.565H272.289V167.638ZM271.699 167.638H271.404V167.565H271.699V167.638ZM271.109 167.638H270.814V167.565H271.109V167.638ZM270.519 167.638H270.224V167.565H270.519V167.638ZM269.929 167.638H269.634V167.565H269.929V167.638ZM269.339 167.638H269.044V167.565H269.339V167.638ZM268.749 167.638H268.454V167.565H268.749V167.638ZM268.159 167.638H267.865V167.565H268.159V167.638ZM267.57 167.638H267.275V167.565H267.57V167.638ZM266.98 167.638H266.685V167.565H266.98V167.638ZM266.39 167.638H266.095V167.565H266.39V167.638ZM265.8 167.638H265.505V167.565H265.8V167.638ZM265.211 167.638H264.916V167.565H265.211V167.638ZM264.621 167.638H264.326V167.565H264.621V167.638ZM264.031 167.638H263.736V167.565H264.031V167.638ZM263.441 167.638H263.146V167.565H263.441V167.638ZM262.851 167.638H262.556V167.565H262.851V167.638ZM262.261 167.638H261.966V167.565H262.261V167.638ZM261.671 167.638H261.376V167.565H261.671V167.638ZM261.081 167.638H260.787V167.565H261.081V167.638ZM260.492 167.638H260.197V167.565H260.492V167.638ZM259.902 167.638H259.607V167.565H259.902V167.638ZM259.312 167.638H259.017V167.565H259.312V167.638ZM258.723 167.638H258.428V167.565H258.723V167.638ZM258.133 167.638H257.838V167.565H258.133V167.638ZM257.543 167.638H257.248V167.565H257.543V167.638ZM256.953 167.638H256.658V167.565H256.953V167.638ZM256.363 167.638H256.068V167.565H256.363V167.638ZM255.773 167.638H255.478V167.565H255.773V167.638ZM255.183 167.638H254.888V167.565H255.183V167.638ZM254.593 167.638H254.298V167.565H254.593V167.638ZM254.003 167.638H253.708V167.565H254.003V167.638ZM253.414 167.638H253.119V167.565H253.414V167.638ZM252.824 167.638H252.529V167.565H252.824V167.638ZM252.235 167.638H251.94V167.565H252.235V167.638ZM251.645 167.638H251.35V167.565H251.645V167.638ZM251.055 167.638H250.76V167.565H251.055V167.638ZM250.465 167.638H250.17V167.565H250.465V167.638ZM249.875 167.638H249.58V167.565H249.875V167.638ZM249.285 167.638H248.99V167.565H249.285V167.638ZM248.695 167.638H248.4V167.565H248.695V167.638ZM248.105 167.638H247.81V167.565H248.105V167.638ZM247.515 167.638H247.22V167.565H247.515V167.638ZM246.925 167.638H246.631V167.565H246.925V167.638ZM246.336 167.638H246.041V167.565H246.336V167.638ZM245.747 167.638H245.452V167.565H245.747V167.638ZM245.157 167.638H244.862V167.565H245.157V167.638ZM244.567 167.638H244.272V167.565H244.567V167.638ZM243.977 167.638H243.682V167.565H243.977V167.638ZM243.387 167.638H243.092V167.565H243.387V167.638ZM242.797 167.638H242.502V167.565H242.797V167.638ZM242.207 167.638H241.912V167.565H242.207V167.638ZM241.617 167.638H241.322V167.565H241.617V167.638ZM241.027 167.638H240.732V167.565H241.027V167.638ZM240.437 167.638H240.142V167.565H240.437V167.638ZM239.847 167.638H239.553V167.565H239.847V167.638ZM239.259 167.638H238.964V167.565H239.259V167.638ZM238.669 167.638H238.374V167.565H238.669V167.638ZM238.079 167.638H237.784V167.565H238.079V167.638ZM237.489 167.638H237.194V167.565H237.489V167.638ZM236.899 167.638H236.604V167.565H236.899V167.638ZM236.309 167.638H236.014V167.565H236.309V167.638ZM235.719 167.638H235.424V167.565H235.719V167.638ZM235.129 167.638H234.834V167.565H235.129V167.638ZM234.539 167.638H234.244V167.565H234.539V167.638ZM233.949 167.638H233.654V167.565H233.949V167.638ZM233.359 167.638H233.064V167.565H233.359V167.638ZM232.771 167.638H232.476V167.565H232.771V167.638ZM232.181 167.638H231.886V167.565H232.181V167.638ZM231.591 167.638H231.296V167.565H231.591V167.638ZM231.001 167.638H230.706V167.565H231.001V167.638ZM230.411 167.638H230.116V167.565H230.411V167.638ZM229.821 167.638H229.526V167.565H229.821V167.638ZM229.231 167.638H228.936V167.565H229.231V167.638ZM228.641 167.638H228.346V167.565H228.641V167.638ZM228.051 167.638H227.756V167.565H228.051V167.638ZM227.461 167.638H227.166V167.565H227.461V167.638ZM226.871 167.638H226.576V167.565H226.871V167.638ZM226.281 167.638H225.986V167.565H226.281V167.638ZM225.693 167.638H225.398V167.565H225.693V167.638ZM225.103 167.638H224.808V167.565H225.103V167.638ZM224.513 167.638H224.218V167.565H224.513V167.638ZM223.923 167.638H223.628V167.565H223.923V167.638ZM223.333 167.638H223.038V167.565H223.333V167.638ZM222.743 167.638H222.448V167.565H222.743V167.638Z" fill="#A09292"/>
<path d="M357.412 124.539C357.412 124.539 360.228 122.732 362.766 125.943C365.305 129.154 364.392 132.241 363.861 135.123C363.334 137.981 360.775 144.522 361.862 147.403C362.951 150.285 361.56 151.785 361.56 151.785C361.56 151.785 352.83 154.021 353.848 140.89C354.867 127.76 357.412 124.539 357.412 124.539Z" fill="#263542"/>
<path d="M302.878 181.492C302.878 181.492 308.931 177.708 310.871 177.533C312.81 177.359 317.551 176.619 317.868 177.972C318.186 179.324 317.974 180.216 315.896 180.634C313.818 181.051 310.018 179.818 308.765 180.157C307.511 180.498 302.129 183.188 302.878 181.492Z" fill="#D5A385"/>
<path d="M314.872 177.399C314.872 177.399 320.589 175.691 322.688 173.865C324.785 172.04 324.929 177.539 324.929 177.539L317.052 179.752L314.872 177.399Z" fill="#D5A385"/>
<path d="M353.672 149.334C353.672 149.334 350.348 148.878 348.118 150.55C345.886 152.223 344.361 155.356 343.68 156.338C342.998 157.32 335.032 166.113 334.636 166.273C334.239 166.432 329.28 169.168 325.94 171.379C322.601 173.59 317.338 176.252 317.338 176.252L320.192 179.752C320.192 179.752 334.254 174.718 337.178 171.995C340.302 169.088 354.75 154.662 354.75 154.662C354.75 154.662 358.381 151.729 353.672 149.334Z" fill="#DC9C4F"/>
<path d="M329.488 271.629C329.488 271.629 325.893 276.469 326.387 277.236C326.879 278.003 330.661 278.112 332.962 277.236C335.263 276.36 335.319 270.686 336.36 268.25C336.795 267.229 335.863 264.217 334.552 263.999C333.241 263.781 331.814 264.422 331.814 264.422C331.814 264.422 333.173 267.854 329.488 271.629Z" fill="#2C3D53"/>
<path d="M331.789 264.382C331.789 264.382 331.033 266.444 330.757 268.412C330.528 270.045 328.195 273.51 328.304 273.949C328.413 274.387 331.373 274.783 332.578 273.654C333.783 272.524 334.559 269.236 334.824 267.27C335.072 265.438 335.383 264.534 335.383 264.534C335.383 264.534 332.94 263.176 331.789 264.382Z" fill="#D5A384"/>
<path d="M336.456 267.823V272.891H335.798V268.974L336.456 267.823Z" fill="#2C3D53"/>
<path d="M360.784 271.708C360.784 271.708 357.318 276.468 357.811 277.235C358.303 278.002 362.085 278.111 364.386 277.235C366.687 276.358 366.743 270.685 367.784 268.248C368.219 267.227 367.287 264.216 365.976 263.997C364.665 263.779 363.126 264.466 363.126 264.466C363.126 264.466 364.468 267.935 360.784 271.708Z" fill="#2C3D53"/>
<path d="M363.126 264.468C363.126 264.468 362.852 266.714 362.414 268.304C361.976 269.893 359.619 273.51 359.73 273.949C359.839 274.387 362.799 274.783 364.004 273.654C365.209 272.524 366.141 269.251 366.25 267.27C366.359 265.289 365.976 263.997 365.976 263.997C365.976 263.997 364.277 263.261 363.126 264.468Z" fill="#D5A384"/>
<path d="M367.88 267.823V272.891H367.222V268.974L367.88 267.823Z" fill="#2C3D53"/>
<path d="M345.807 185.666C345.807 185.666 342.721 200.02 342.013 203.633C341.305 207.247 339.32 224.749 339.108 227.724C338.895 230.7 335.888 241.914 336.03 242.976C336.171 244.039 331.403 265.13 331.403 265.13C331.403 265.13 336.311 266.465 337.137 265.565C337.839 264.801 344.891 245.516 344.891 240.202C344.891 232.855 350.432 223.503 351.132 221.86C357.644 206.592 356.253 201.688 357.103 200.697C357.954 199.704 358.027 201.31 358.523 203.506C359.019 205.702 360.081 224.693 360.719 227.102C361.356 229.512 360.862 237.659 361.216 241.769C361.57 245.88 361.979 264.292 361.979 264.292C361.979 264.292 365.533 265.11 367.223 264.322C367.71 264.095 368.94 243.809 369.011 238.92C369.082 234.031 369.157 227.287 369.294 225.174C370.607 204.913 373.834 202.02 368.751 187.681C359.237 160.832 345.807 185.666 345.807 185.666Z" fill="#343C64"/>
<path d="M353.793 147.424C353.793 147.424 350.573 148.944 349.454 149.168C348.336 149.393 343.997 155.028 343.237 157.086C342.476 159.143 343.237 162.229 344.802 165.852C346.367 169.475 344.892 170.683 345.607 174.305C346.323 177.927 346.95 185.598 346.815 187.611C346.681 189.625 364.906 190.004 369.066 186.337C369.066 186.337 364.886 180.076 364.349 179.181C363.812 178.287 364.259 173.411 364.752 172.159C365.244 170.907 368.518 160.257 368.518 160.257C368.518 160.257 371.197 152.077 368.778 150.198C366.676 148.565 360.946 147.983 359.918 147.626C358.887 147.267 355.895 147.111 353.793 147.424Z" fill="#E5D8D1"/>
<path d="M352.765 154.603L350.808 152.311L352.507 146.279C352.507 146.279 353.078 149.639 352.765 154.603Z" fill="#CFC3BB"/>
<path d="M352.256 143.708C352.256 143.708 352.899 149.615 352.765 151.539C352.765 151.539 356.112 154.892 359.917 147.624C359.917 147.624 358.315 144.629 359.52 140.548C360.727 136.467 352.256 143.708 352.256 143.708Z" fill="#D5A384"/>
<path d="M352.765 151.539V154.603L356.616 151.726L352.765 151.539Z" fill="#D5A384"/>
<path d="M352.765 154.603L354.364 152.624L359.749 147.255L361.492 148.934L352.765 154.603Z" fill="#CFC3BB"/>
<path d="M360.496 147.769C360.496 147.769 355.977 154.628 355.761 157.648C355.545 160.667 357.441 183.25 358.958 190.51C360.476 197.769 371.445 189.691 371.445 189.691C371.445 189.691 364.073 177.761 366.903 168.208C369.732 158.655 370.762 154.835 370.762 154.835C370.762 154.835 369.788 149.515 366.339 148.766C363.315 148.109 360.496 147.769 360.496 147.769Z" fill="#DC9C4F"/>
<path d="M342.941 158.001C342.941 158.001 342.125 160.886 345.301 167.262C345.301 167.262 345.251 175.423 345.161 177.973C345.071 180.523 343.268 189.69 343.268 189.69L347.607 192.001C348.24 192.371 349.023 191.858 348.935 191.129C348.045 183.793 345.152 155.963 351.402 148.484L348.894 149.223C348.895 149.223 344.439 152.869 342.941 158.001Z" fill="#DC9C4F"/>
<path d="M350.808 152.311L348.342 152.993L352.507 146.279L350.808 152.311Z" fill="#F4E4DC"/>
<path d="M354.364 152.624L356.616 155.575L361.216 147.865L359.749 147.255L354.364 152.624Z" fill="#F4E4DC"/>
<path d="M352.389 145.008L352.507 146.171C352.507 146.171 355.159 146.691 358.64 142.446C358.64 142.446 356.172 145.455 352.389 145.008Z" fill="#977560"/>
<path d="M353.063 145.095C352.016 145.056 349.091 144.714 347.647 137.977C345.885 129.746 349.78 125.476 353.115 124.685C356.449 123.895 359.526 125.054 361.234 129.356C361.234 129.356 362.482 132.71 360.457 138.686C358.432 144.66 354.185 145.136 353.063 145.095Z" fill="#D5A385"/>
<path d="M355.74 130.023C355.74 130.023 351.261 130.302 347.097 136.557C347.097 136.557 345.149 129.032 350.242 125.597C355.334 122.162 358.902 125.114 360.145 126.613C360.145 126.613 361.929 127.023 361.985 130.403C362.041 133.785 364.315 138.888 359.325 141.309C359.325 141.309 359.8 137.449 359.361 136.565C358.921 135.682 357.396 136.278 355.74 130.023Z" fill="#263542"/>
<path d="M359.116 135.065C359.342 134.48 359.957 134.244 360.296 134.872C360.635 135.501 360.231 137.934 359.327 138.2C358.423 138.467 358.657 136.251 359.116 135.065Z" fill="#D5A385"/>
<path d="M306.094 227.032H225.575C223.056 227.032 221.013 224.99 221.013 222.47V175.946C221.013 173.427 223.056 171.385 225.575 171.385H306.094C308.613 171.385 310.656 173.427 310.656 175.946V222.47C310.656 224.99 308.613 227.032 306.094 227.032Z" fill="url(#paint2_linear)"/>
<path d="M317.018 182.213H217.605V231.445H317.018V182.213Z" fill="#504E58"/>
<path d="M306.449 235.221H225.22C222.897 235.221 221.013 233.337 221.013 231.014V192.123C221.013 189.8 222.897 187.917 225.22 187.917H306.451C308.774 187.917 310.657 189.8 310.657 192.123V231.014C310.655 233.337 308.772 235.221 306.449 235.221Z" fill="url(#paint3_linear)"/>
<path d="M291.704 213.779C297.825 213.609 302.649 208.51 302.479 202.389C302.31 196.269 297.21 191.444 291.09 191.614C284.969 191.784 280.145 196.883 280.315 203.003C280.484 209.124 285.583 213.948 291.704 213.779Z" fill="#E9C382"/>
<path d="M317.02 198.745H218.702V239.485H317.02V198.745Z" fill="#504E58"/>
<path d="M223.708 204.443C223.708 204.443 223.427 203.758 223.45 203.399C223.45 203.399 223.543 202.748 223.579 202.282C223.591 202.135 223.597 202.005 223.593 201.921C223.575 201.57 223.43 200.806 223.624 199.952C223.817 199.098 224.802 196.151 224.802 196.151L227.463 196.546L229.774 196.232C229.774 196.232 231.497 201.261 231.41 202.079C231.401 202.158 231.389 202.236 231.373 202.31C231.231 202.994 230.839 203.444 230.724 203.794C230.681 203.922 230.168 205.17 229.781 205.291C229.247 205.458 228.809 205.356 228.511 205.112C228.511 205.112 227.451 205.393 226.778 205.086C226.778 205.086 225.808 205.376 225.081 204.756C225.085 204.756 224.068 204.938 223.708 204.443Z" fill="#D6A586"/>
<path d="M235.331 150.359C236.232 150.708 237.187 152.887 236.477 157.161C235.716 161.746 234.202 163.705 233.594 164.777C232.985 165.849 229.222 172.994 229.237 174.051C229.274 176.803 229.209 184.07 229.296 184.626C229.445 185.576 230.059 196.524 230.059 196.524L224.248 197.931C224.248 197.931 223.102 185.586 222.584 181.855C222.376 180.358 221.928 176.25 222.445 172.158C222.945 168.209 225.805 159.484 226.188 158.789C226.57 158.094 229.376 148.053 235.331 150.359Z" fill="#C46F4F"/>
<path d="M310.307 180.123C309.74 180.393 309.097 181.343 309.815 181.315C310.533 181.287 312.672 180.528 313.207 180.519C313.744 180.51 310.307 180.123 310.307 180.123Z" fill="#D5A385"/>
<path d="M376.579 204.478L367.931 203.061L367.976 202.844C367.983 202.81 368.151 201.989 368.604 200.995C369.026 200.07 369.782 198.819 370.995 198.12C372.111 197.475 373.414 197.397 374.868 197.885C375.906 198.235 376.624 198.857 377.002 199.735C377.846 201.697 376.697 204.225 376.647 204.331L376.579 204.478ZM368.443 202.713L376.322 204.003C376.548 203.447 377.269 201.434 376.608 199.902C376.279 199.141 375.648 198.598 374.731 198.288C373.397 197.84 372.212 197.906 371.206 198.487C369.389 199.537 368.635 201.975 368.443 202.713Z" fill="#2C374A"/>
<path d="M353.797 227.209L381.49 230.812L386.185 205.452L357.299 199.978L353.797 227.209Z" fill="#C14B48"/>
<path d="M347.278 225.352L357.299 199.978L353.797 227.209L350.898 225.51L347.278 225.352Z" fill="#8F3836"/>
<path d="M377.872 204.232L368.613 204.25L368.622 204.017C368.623 203.98 368.657 203.095 368.956 201.98C369.235 200.943 369.807 199.509 370.952 198.57C372.004 197.706 373.349 197.397 374.949 197.657C376.092 197.841 376.947 198.366 377.493 199.216C378.713 201.115 377.95 203.947 377.918 204.067L377.872 204.232ZM369.088 203.798L377.523 203.782C377.661 203.163 378.065 200.94 377.113 199.458C376.639 198.72 375.885 198.265 374.875 198.101C373.408 197.863 372.184 198.139 371.237 198.918C369.523 200.326 369.16 202.996 369.088 203.798Z" fill="#2C374A"/>
<path d="M358.057 231.865L392 230.783L388.055 203.586L357.019 203.428L358.057 231.865Z" fill="#DC9C4F"/>
<path d="M350.941 231.057L357.019 203.428L358.057 231.865L354.741 230.596L350.941 231.057Z" fill="#9B6C33"/>
<path d="M377.284 200.618C377.284 200.618 377.517 200.051 377.497 199.753C377.497 199.753 377.421 199.213 377.39 198.826C377.381 198.704 377.375 198.596 377.378 198.527C377.393 198.237 377.512 197.604 377.353 196.894C377.194 196.188 376.377 193.745 376.377 193.745L374.172 194.073L372.256 193.813C372.256 193.813 370.828 197.981 370.9 198.657C370.908 198.723 370.918 198.788 370.931 198.849C371.048 199.415 371.374 199.788 371.468 200.079C371.503 200.185 371.93 201.22 372.248 201.319C372.691 201.458 373.054 201.374 373.3 201.172C373.3 201.172 374.179 201.403 374.736 201.149C374.736 201.149 375.54 201.39 376.143 200.877C376.143 200.878 376.987 201.03 377.284 200.618Z" fill="#D6A586"/>
<path d="M361.99 148.078C361.99 148.078 367.229 147.755 369.858 150.813C372.486 153.87 372.341 157.502 373.011 159.078C373.679 160.655 375.208 167.439 375.543 168.538C375.878 169.637 376.204 175.814 376.682 180.783C377.16 185.752 377.062 195.03 377.062 195.03L372.051 194.122C372.051 194.122 371.849 185.277 371.722 180.148C371.595 175.02 367.422 165.959 365.846 161.994C364.268 158.028 357.991 150.567 361.99 148.078Z" fill="#DC9C4F"/>
<path d="M309.822 97.8854L307.374 110.749L271 103.825L274.23 86.8593L306.5 93.0041L306.642 93.2115L309.674 97.6684L309.822 97.8854Z" fill="#8DDE95"/>
<path d="M309.822 97.8854L305.753 97.1116L306.527 93.0425L306.586 93.1309L306.721 93.3287L309.597 97.5552L309.822 97.8854Z" fill="#2F831A"/>
<path d="M294.433 99.4946C294.022 101.655 291.937 103.074 289.774 102.663C287.614 102.252 286.195 100.167 286.606 98.0064C287.017 95.8461 289.102 94.427 291.265 94.838C293.427 95.2489 294.844 97.3343 294.433 99.4946Z" fill="#2F831A"/>
<path d="M302.45 101.021C302.275 101.935 301.394 102.534 300.482 102.36C299.568 102.185 298.969 101.304 299.143 100.391C299.318 99.4774 300.2 98.8782 301.112 99.053C302.024 99.2258 302.625 100.109 302.45 101.021Z" fill="#2F831A"/>
<path d="M278.589 96.4798C278.764 95.5658 279.645 94.9666 280.557 95.1414C281.471 95.3161 282.07 96.1975 281.896 97.1097C281.721 98.0237 280.839 98.6228 279.927 98.4481C279.015 98.2753 278.416 97.3919 278.589 96.4798Z" fill="#2F831A"/>
<path d="M356.611 76.8893L361.579 89.0042L327.321 103.053L320.769 87.0744L351.163 74.6099L351.396 74.7079L356.369 76.7875L356.611 76.8893Z" fill="#8DDE95"/>
<path d="M356.611 76.8893L352.778 78.46L351.208 74.6291L351.305 74.6694L351.524 74.7616L356.242 76.7337L356.611 76.8893Z" fill="#2F831A"/>
<path d="M344.594 86.6365C345.429 88.672 344.456 90.9975 342.42 91.8328C340.385 92.6681 338.059 91.6945 337.224 89.659C336.389 87.6236 337.362 85.2981 339.398 84.4628C341.433 83.6275 343.759 84.6011 344.594 86.6365Z" fill="#2F831A"/>
<path d="M352.145 83.5391C352.498 84.3994 352.087 85.3826 351.225 85.7359C350.365 86.0893 349.381 85.6783 349.028 84.8161C348.675 83.9558 349.088 82.9727 349.948 82.6193C350.808 82.2679 351.793 82.6789 352.145 83.5391Z" fill="#2F831A"/>
<path d="M329.672 92.7564C329.318 91.8961 329.731 90.913 330.592 90.5596C331.452 90.2063 332.435 90.6192 332.788 91.4794C333.142 92.3397 332.729 93.3229 331.869 93.6762C331.008 94.0276 330.025 93.6167 329.672 92.7564Z" fill="#2F831A"/>
<path d="M331.043 59.1998L322.139 68.7992L294.994 43.6169L306.738 30.9566L330.82 53.2988L330.83 53.5504L331.033 58.9387L331.043 59.1998Z" fill="#8DDE95"/>
<path d="M331.043 59.1998L328.007 56.3828L330.822 53.3468L330.826 53.4524L330.835 53.6906L331.029 58.8004L331.043 59.1998Z" fill="#2F831A"/>
<path d="M317.148 52.3925C315.652 54.0055 313.132 54.0996 311.519 52.6037C309.906 51.1078 309.812 48.5865 311.308 46.9754C312.804 45.3624 315.325 45.2683 316.936 46.7642C318.549 48.2581 318.644 50.7794 317.148 52.3925Z" fill="#2F831A"/>
<path d="M323.131 57.942C322.499 58.6237 321.434 58.6641 320.752 58.0304C320.07 57.3986 320.03 56.3329 320.664 55.6512C321.295 54.9695 322.361 54.9291 323.043 55.5628C323.725 56.1946 323.765 57.2603 323.131 57.942Z" fill="#2F831A"/>
<path d="M305.325 41.4239C305.956 40.7422 307.022 40.7019 307.704 41.3356C308.386 41.9674 308.426 43.0331 307.792 43.7148C307.16 44.3965 306.095 44.4368 305.413 43.8051C304.733 43.1714 304.693 42.1056 305.325 41.4239Z" fill="#2F831A"/>
<path d="M372.864 1.81273L378.831 13.4707L345.869 30.3382L338.002 14.9646L367.246 0L367.486 0.0768106L372.615 1.73208L372.864 1.81273Z" fill="#8DDE95"/>
<path d="M372.864 1.81272L369.177 3.70034L367.29 0.0153503L367.391 0.0479948L367.618 0.120965L372.484 1.68982L372.864 1.81272Z" fill="#2F831A"/>
<path d="M361.706 12.5336C362.708 14.4922 361.932 16.8926 359.974 17.893C358.015 18.8954 355.616 18.1196 354.614 16.1609C353.612 14.2023 354.387 11.8019 356.346 10.8015C358.305 9.80103 360.705 10.5749 361.706 12.5336Z" fill="#2F831A"/>
<path d="M368.972 8.81593C369.396 9.64356 369.068 10.6575 368.24 11.0818C367.413 11.5062 366.399 11.1779 365.974 10.3502C365.55 9.52259 365.878 8.50869 366.706 8.08431C367.534 7.65993 368.548 7.9883 368.972 8.81593Z" fill="#2F831A"/>
<path d="M347.35 19.8805C346.925 19.0529 347.254 18.037 348.081 17.6146C348.909 17.1902 349.923 17.5186 350.347 18.3462C350.772 19.1738 350.443 20.1897 349.616 20.6121C348.788 21.0365 347.774 20.7081 347.35 19.8805Z" fill="#2F831A"/>
<defs>
<linearGradient id="paint0_linear" x1="274" y1="-65.709" x2="274" y2="226.387" gradientUnits="userSpaceOnUse">
<stop stop-color="#FFDAA2"/>
<stop offset="1" stop-color="white" stop-opacity="0"/>
</linearGradient>
<linearGradient id="paint1_linear" x1="254.493" y1="345.253" x2="346.656" y2="114.235" gradientUnits="userSpaceOnUse">
<stop stop-color="#F1DABB"/>
<stop offset="1" stop-color="#A98169"/>
</linearGradient>
<linearGradient id="paint2_linear" x1="334.945" y1="199.208" x2="231.979" y2="199.208" gradientUnits="userSpaceOnUse">
<stop stop-color="#C34675"/>
<stop offset="1" stop-color="#E2AA3B"/>
</linearGradient>
<linearGradient id="paint3_linear" x1="221.013" y1="211.569" x2="310.656" y2="211.569" gradientUnits="userSpaceOnUse">
<stop stop-color="#EBC782"/>
<stop offset="1" stop-color="#C96174"/>
</linearGradient>
</defs>
</svg>
